<?xml version="1.0" encoding="UTF-8"?>
<svg xmlns="http://www.w3.org/2000/svg" xmlns:xlink="http://www.w3.org/1999/xlink" width="375pt" height="374.999991pt" viewBox="0 0 375 374.999991" version="1.2">
<defs>
<clipPath id="clip1">
  <path d="M 156 32.632812 L 224 32.632812 L 224 170 L 156 170 Z M 156 32.632812 "/>
</clipPath>
<clipPath id="clip2">
  <path d="M 156 200 L 224 200 L 224 337.132812 L 156 337.132812 Z M 156 200 "/>
</clipPath>
<clipPath id="clip3">
  <path d="M 37.5 151 L 175 151 L 175 219 L 37.5 219 Z M 37.5 151 "/>
</clipPath>
</defs>
<g id="surface1">
<g clip-path="url(#clip1)" clip-rule="nonzero">
<path style=" stroke:none;fill-rule:nonzero;fill:rgb(100%,34.118652%,34.118652%);fill-opacity:1;" d="M 187.824219 33.796875 C 178.746094 41.914062 171.363281 52.691406 165.921875 63.484375 C 160.8125 73.632812 157.558594 84.546875 156.5625 95.875 C 155.371094 109.40625 158.292969 122.851562 163.792969 135.179688 C 169.414062 147.765625 178.167969 158.851562 187.824219 168.582031 C 189.316406 170.089844 191.824219 170.070312 193.320312 168.582031 C 205.390625 156.582031 215.214844 142.386719 220.082031 125.953125 C 223.871094 113.15625 223.972656 99.578125 221.339844 86.550781 C 217.621094 68.21875 208.085938 50.949219 196.015625 36.792969 C 195.148438 35.769531 194.261719 34.753906 193.320312 33.796875 C 189.804688 30.214844 184.300781 35.71875 187.824219 39.296875 C 196.789062 48.421875 204.003906 60.347656 208.945312 72.566406 C 213.5 83.800781 215.875 95.773438 215.3125 107.90625 C 214.609375 122.976562 208.566406 137.070312 199.875 149.230469 C 196.308594 154.207031 192.15625 158.765625 187.824219 163.078125 L 193.320312 163.078125 C 181.4375 151.097656 171.414062 137.121094 166.714844 120.742188 C 163.320312 108.921875 163.332031 96.445312 166.273438 84.539062 C 170.269531 68.351562 179.4375 53.4375 190.886719 41.671875 C 191.675781 40.859375 192.480469 40.054688 193.320312 39.296875 C 197.066406 35.945312 191.546875 30.460938 187.824219 33.796875 "/>
</g>
<path style=" stroke:none;fill-rule:nonzero;fill:rgb(100%,34.118652%,34.118652%);fill-opacity:1;" d="M 186.679688 101.191406 L 186.679688 165.832031 C 186.679688 170.847656 194.460938 170.847656 194.460938 165.832031 L 194.460938 101.191406 C 194.460938 96.171875 186.679688 96.171875 186.679688 101.191406 "/>
<g clip-path="url(#clip2)" clip-rule="nonzero">
<path style=" stroke:none;fill-rule:nonzero;fill:rgb(100%,34.118652%,34.118652%);fill-opacity:1;" d="M 191.683594 335.96875 C 200.753906 327.851562 208.136719 317.074219 213.578125 306.28125 C 218.6875 296.132812 221.941406 285.214844 222.9375 273.890625 C 224.128906 260.359375 221.207031 246.914062 215.707031 234.582031 C 210.089844 222 201.332031 210.914062 191.683594 201.183594 C 190.183594 199.675781 187.679688 199.695312 186.179688 201.183594 C 174.117188 213.183594 164.285156 227.378906 159.417969 243.804688 C 155.628906 256.613281 155.527344 270.195312 158.167969 283.21875 C 161.878906 301.542969 171.414062 318.8125 183.484375 332.972656 C 184.355469 333.996094 185.238281 335.011719 186.179688 335.96875 C 189.703125 339.554688 195.199219 334.046875 191.683594 330.464844 C 182.710938 321.347656 175.503906 309.417969 170.554688 297.199219 C 166.003906 285.960938 163.625 273.992188 164.191406 261.859375 C 164.890625 246.789062 170.933594 232.695312 179.625 220.535156 C 183.191406 215.558594 187.34375 211 191.683594 206.6875 L 186.179688 206.6875 C 198.0625 218.667969 208.085938 232.644531 212.785156 249.023438 C 216.183594 260.84375 216.167969 273.320312 213.226562 285.226562 C 209.230469 301.414062 200.0625 316.328125 188.613281 328.09375 C 187.824219 328.902344 187.019531 329.710938 186.179688 330.464844 C 182.433594 333.820312 187.953125 339.304688 191.683594 335.96875 "/>
</g>
<path style=" stroke:none;fill-rule:nonzero;fill:rgb(100%,34.118652%,34.118652%);fill-opacity:1;" d="M 192.820312 268.574219 L 192.820312 203.933594 C 192.820312 198.917969 185.039062 198.917969 185.039062 203.933594 L 185.039062 268.574219 C 185.039062 273.59375 192.820312 273.59375 192.820312 268.574219 "/>
<path style=" stroke:none;fill-rule:nonzero;fill:rgb(100%,34.118652%,34.118652%);fill-opacity:1;" d="M 340.835938 182.949219 C 332.71875 173.875 321.941406 166.496094 311.148438 161.054688 C 301 155.945312 290.082031 152.691406 278.757812 151.695312 C 265.226562 150.503906 251.78125 153.425781 239.449219 158.925781 C 226.867188 164.542969 215.78125 173.300781 206.050781 182.949219 C 204.542969 184.449219 204.5625 186.957031 206.050781 188.453125 C 218.050781 200.523438 232.246094 210.347656 248.671875 215.214844 C 261.480469 219.003906 275.0625 219.105469 288.085938 216.472656 C 306.410156 212.753906 323.6875 203.21875 337.839844 191.148438 C 338.863281 190.28125 339.882812 189.394531 340.835938 188.453125 C 344.421875 184.9375 338.914062 179.433594 335.332031 182.949219 C 326.214844 191.921875 314.285156 199.128906 302.066406 204.078125 C 290.828125 208.628906 278.859375 211.007812 266.726562 210.441406 C 251.65625 209.742188 237.5625 203.699219 225.410156 195.007812 C 220.425781 191.441406 215.867188 187.289062 211.554688 182.949219 L 211.554688 188.453125 C 223.535156 176.570312 237.511719 166.546875 253.890625 161.847656 C 265.710938 158.449219 278.1875 158.464844 290.09375 161.40625 C 306.28125 165.402344 321.195312 174.570312 332.960938 186.019531 C 333.769531 186.808594 334.578125 187.613281 335.332031 188.453125 C 338.6875 192.199219 344.171875 186.679688 340.835938 182.949219 "/>
<path style=" stroke:none;fill-rule:nonzero;fill:rgb(100%,34.118652%,34.118652%);fill-opacity:1;" d="M 273.441406 181.8125 L 208.800781 181.8125 C 203.785156 181.8125 203.785156 189.59375 208.800781 189.59375 L 273.441406 189.59375 C 278.460938 189.59375 278.460938 181.8125 273.441406 181.8125 "/>
<g clip-path="url(#clip3)" clip-rule="nonzero">
<path style=" stroke:none;fill-rule:nonzero;fill:rgb(100%,34.118652%,34.118652%);fill-opacity:1;" d="M 38.664062 186.816406 C 46.78125 195.886719 57.558594 203.269531 68.351562 208.703125 C 78.5 213.820312 89.414062 217.074219 100.742188 218.070312 C 114.273438 219.261719 127.71875 216.339844 140.046875 210.839844 C 152.632812 205.222656 163.71875 196.464844 173.449219 186.816406 C 174.957031 185.316406 174.9375 182.808594 173.449219 181.3125 C 161.449219 169.242188 147.253906 159.417969 130.820312 154.550781 C 118.023438 150.761719 104.445312 150.660156 91.417969 153.292969 C 73.085938 157.011719 55.816406 166.546875 41.660156 178.609375 C 40.636719 179.484375 39.621094 180.367188 38.664062 181.3125 C 35.082031 184.828125 40.585938 190.332031 44.164062 186.816406 C 53.289062 177.84375 65.214844 170.628906 77.433594 165.679688 C 88.667969 161.136719 100.640625 158.757812 112.773438 159.324219 C 127.84375 160.023438 141.9375 166.066406 154.097656 174.757812 C 159.074219 178.324219 163.632812 182.476562 167.945312 186.816406 L 167.945312 181.3125 C 155.964844 193.195312 141.988281 203.21875 125.609375 207.917969 C 113.789062 211.316406 101.3125 211.292969 89.40625 208.359375 C 73.214844 204.363281 58.304688 195.195312 46.539062 183.746094 C 45.726562 182.957031 44.921875 182.152344 44.164062 181.3125 C 40.8125 177.566406 35.328125 183.085938 38.664062 186.816406 "/>
</g>
<path style=" stroke:none;fill-rule:nonzero;fill:rgb(100%,34.118652%,34.118652%);fill-opacity:1;" d="M 106.058594 187.949219 L 170.699219 187.949219 C 175.714844 187.949219 175.714844 180.167969 170.699219 180.167969 L 106.058594 180.167969 C 101.039062 180.167969 101.039062 187.949219 106.058594 187.949219 "/>
<path style=" stroke:none;fill-rule:nonzero;fill:rgb(100%,34.118652%,34.118652%);fill-opacity:1;" d="M 75.171875 74.019531 C 74.691406 82.601562 76.257812 91.621094 78.640625 99.820312 C 83.601562 116.859375 94.484375 131.65625 110.359375 139.960938 C 122.410156 146.265625 136.171875 148.449219 149.652344 148.5 C 151.773438 148.507812 153.535156 146.726562 153.542969 144.609375 C 153.578125 132.128906 151.429688 119.773438 145.917969 108.503906 C 141.582031 99.640625 134.960938 92.203125 127.152344 86.253906 C 115.371094 77.269531 100.671875 72.566406 86.113281 70.699219 C 83.785156 70.398438 81.417969 70.148438 79.0625 70.128906 C 74.042969 70.085938 74.046875 77.867188 79.0625 77.910156 C 79.773438 77.914062 80.488281 77.957031 81.195312 78.003906 C 81.988281 78.054688 82.78125 78.121094 83.574219 78.195312 C 84.0625 78.242188 84.554688 78.296875 85.042969 78.351562 C 85.308594 78.378906 85.574219 78.410156 85.839844 78.445312 C 86.976562 78.582031 85.496094 78.390625 86.226562 78.496094 C 92.617188 79.375 98.917969 80.933594 104.984375 83.121094 C 121.699219 89.148438 135.738281 101.507812 141.808594 118.664062 C 144.757812 127 145.785156 135.808594 145.761719 144.609375 C 147.0625 143.316406 148.355469 142.015625 149.652344 140.71875 C 128.386719 140.636719 106.972656 134.09375 94.53125 115.8125 C 90.195312 109.445312 87.417969 102.722656 85.472656 95.320312 C 83.898438 89.328125 83.3125 85.246094 83.007812 79.40625 C 82.914062 77.617188 82.851562 75.808594 82.953125 74.019531 C 83.234375 69.003906 75.449219 69.03125 75.171875 74.019531 "/>
<path style=" stroke:none;fill-rule:nonzero;fill:rgb(100%,34.118652%,34.118652%);fill-opacity:1;" d="M 111.601562 112.066406 L 146.898438 147.359375 C 150.453125 150.910156 155.957031 145.40625 152.402344 141.859375 L 117.105469 106.5625 C 113.558594 103.011719 108.054688 108.511719 111.601562 112.066406 "/>
<path style=" stroke:none;fill-rule:nonzero;fill:rgb(100%,34.118652%,34.118652%);fill-opacity:1;" d="M 297.527344 74.019531 C 298.019531 82.828125 296.648438 90.109375 294.085938 98.574219 C 289.1875 114.746094 278.011719 128.609375 261.945312 135.226562 C 252.089844 139.289062 241.421875 140.679688 230.828125 140.71875 L 234.71875 144.609375 C 234.6875 132.699219 236.703125 120.785156 242.429688 110.230469 C 246.757812 102.246094 253.128906 95.574219 260.667969 90.558594 C 267.238281 86.191406 274.238281 83.242188 281.777344 81.101562 C 284.847656 80.234375 287.960938 79.542969 291.105469 78.988281 C 291.75 78.875 292.390625 78.769531 293.039062 78.667969 C 293.339844 78.625 295.21875 78.367188 294.085938 78.515625 C 295.175781 78.371094 296.265625 78.253906 297.359375 78.152344 C 298.703125 78.03125 300.066406 77.921875 301.417969 77.910156 C 306.4375 77.867188 306.4375 70.085938 301.417969 70.128906 C 274.238281 70.359375 245.410156 85.039062 233.746094 110.214844 C 228.757812 120.964844 226.90625 132.820312 226.933594 144.609375 C 226.941406 146.726562 228.703125 148.507812 230.828125 148.5 C 253.160156 148.414062 275.871094 141.683594 289.988281 123.414062 C 299.066406 111.667969 303.683594 97.261719 305.027344 82.601562 C 305.289062 79.765625 305.464844 76.867188 305.308594 74.019531 C 305.035156 69.03125 297.246094 69.003906 297.527344 74.019531 "/>
<path style=" stroke:none;fill-rule:nonzero;fill:rgb(100%,34.118652%,34.118652%);fill-opacity:1;" d="M 263.371094 106.5625 L 228.074219 141.859375 C 224.527344 145.40625 230.03125 150.910156 233.578125 147.359375 L 268.875 112.066406 C 272.429688 108.511719 266.925781 103.011719 263.371094 106.5625 "/>
<path style=" stroke:none;fill-rule:nonzero;fill:rgb(100%,34.118652%,34.118652%);fill-opacity:1;" d="M 82.953125 296.226562 C 82.460938 287.417969 83.824219 280.136719 86.390625 271.675781 C 91.292969 255.496094 102.472656 241.632812 118.53125 235.015625 C 128.386719 230.957031 139.054688 229.570312 149.652344 229.527344 C 148.355469 228.230469 147.0625 226.929688 145.761719 225.636719 C 145.796875 237.550781 143.773438 249.457031 138.054688 260.015625 C 133.722656 267.996094 127.351562 274.675781 119.808594 279.6875 C 113.242188 284.058594 106.238281 287.003906 98.703125 289.144531 C 95.636719 290.015625 92.515625 290.707031 89.378906 291.261719 C 88.734375 291.371094 88.085938 291.472656 87.441406 291.570312 C 87.140625 291.621094 85.265625 291.875 86.394531 291.726562 C 85.308594 291.875 84.214844 291.996094 83.121094 292.09375 C 81.777344 292.21875 80.417969 292.324219 79.0625 292.335938 C 74.046875 292.378906 74.042969 300.160156 79.0625 300.117188 C 106.238281 299.886719 135.066406 285.210938 146.730469 260.027344 C 151.714844 249.277344 153.578125 237.425781 153.539062 225.636719 C 153.53125 223.519531 151.769531 221.738281 149.648438 221.746094 C 127.3125 221.832031 104.605469 228.566406 90.484375 246.832031 C 81.414062 258.578125 76.792969 272.984375 75.449219 287.644531 C 75.1875 290.480469 75.011719 293.375 75.167969 296.226562 C 75.445312 301.214844 83.230469 301.246094 82.949219 296.226562 "/>
<path style=" stroke:none;fill-rule:nonzero;fill:rgb(100%,34.118652%,34.118652%);fill-opacity:1;" d="M 117.105469 263.683594 L 152.402344 228.386719 C 155.957031 224.839844 150.453125 219.335938 146.898438 222.882812 L 111.601562 258.179688 C 108.054688 261.734375 113.558594 267.230469 117.105469 263.683594 "/>
<path style=" stroke:none;fill-rule:nonzero;fill:rgb(100%,34.118652%,34.118652%);fill-opacity:1;" d="M 305.308594 296.226562 C 305.789062 287.644531 304.226562 278.625 301.84375 270.425781 C 296.875 253.386719 286 238.597656 270.117188 230.285156 C 258.066406 223.980469 244.304688 221.800781 230.828125 221.746094 C 228.703125 221.738281 226.941406 223.519531 226.933594 225.636719 C 226.898438 238.117188 229.050781 250.480469 234.5625 261.742188 C 238.894531 270.613281 245.515625 278.042969 253.324219 283.996094 C 265.113281 292.976562 279.804688 297.679688 294.367188 299.546875 C 296.699219 299.84375 299.066406 300.101562 301.417969 300.117188 C 306.4375 300.160156 306.4375 292.378906 301.417969 292.335938 C 300.707031 292.332031 299.992188 292.289062 299.285156 292.242188 C 298.492188 292.195312 297.695312 292.125 296.90625 292.050781 C 296.417969 292 295.929688 291.949219 295.441406 291.894531 L 294.640625 291.800781 C 293.5 291.664062 294.980469 291.851562 294.253906 291.753906 C 287.859375 290.875 281.5625 289.3125 275.496094 287.125 C 258.777344 281.09375 244.746094 268.738281 238.667969 251.582031 C 235.71875 243.246094 234.691406 234.4375 234.71875 225.636719 L 230.828125 229.527344 C 252.089844 229.605469 273.503906 236.148438 285.949219 254.433594 C 290.289062 260.800781 293.066406 267.523438 295.007812 274.925781 C 296.582031 280.914062 297.167969 284.996094 297.472656 290.835938 C 297.566406 292.628906 297.628906 294.433594 297.527344 296.226562 C 297.246094 301.246094 305.035156 301.214844 305.308594 296.226562 "/>
<path style=" stroke:none;fill-rule:nonzero;fill:rgb(100%,34.118652%,34.118652%);fill-opacity:1;" d="M 268.875 258.179688 L 233.578125 222.882812 C 230.03125 219.335938 224.527344 224.839844 228.074219 228.386719 L 263.371094 263.683594 C 266.925781 267.230469 272.429688 261.734375 268.875 258.179688 "/>
<path style=" stroke:none;fill-rule:nonzero;fill:rgb(100%,34.118652%,34.118652%);fill-opacity:1;" d="M 75.132812 136 C 74.855469 141.136719 67.449219 141.136719 67.171875 136 C 66.894531 130.859375 74.859375 130.890625 75.132812 136 C 75.402344 140.992188 83.183594 141.019531 82.914062 136 C 82.554688 129.359375 77.796875 124.597656 71.152344 124.234375 C 64.519531 123.878906 59.71875 129.894531 59.390625 136 C 59.03125 142.628906 65.042969 147.429688 71.152344 147.765625 C 77.78125 148.121094 82.585938 142.105469 82.914062 136 C 83.183594 130.984375 75.402344 131.007812 75.132812 136 "/>
<path style=" stroke:none;fill-rule:nonzero;fill:rgb(100%,34.118652%,34.118652%);fill-opacity:1;" d="M 305.441406 136 C 305.160156 141.136719 297.753906 141.136719 297.476562 136 C 297.199219 130.859375 305.167969 130.890625 305.441406 136 C 305.707031 140.992188 313.488281 141.019531 313.222656 136 C 312.859375 129.359375 308.105469 124.597656 301.457031 124.234375 C 294.828125 123.878906 290.027344 129.894531 289.695312 136 C 289.335938 142.628906 295.347656 147.429688 301.457031 147.765625 C 308.085938 148.121094 312.890625 142.105469 313.222656 136 C 313.488281 130.984375 305.707031 131.007812 305.441406 136 "/>
<path style=" stroke:none;fill-rule:nonzero;fill:rgb(100%,34.118652%,34.118652%);fill-opacity:1;" d="M 75.132812 233.511719 C 74.855469 238.652344 67.449219 238.652344 67.171875 233.511719 C 66.894531 228.367188 74.859375 228.394531 75.132812 233.511719 C 75.402344 238.496094 83.183594 238.527344 82.914062 233.511719 C 82.554688 226.867188 77.796875 222.105469 71.152344 221.746094 C 64.519531 221.390625 59.71875 227.402344 59.390625 233.511719 C 59.03125 240.140625 65.042969 244.9375 71.152344 245.269531 C 77.78125 245.628906 82.585938 239.617188 82.914062 233.511719 C 83.183594 228.492188 75.402344 228.515625 75.132812 233.511719 "/>
<path style=" stroke:none;fill-rule:nonzero;fill:rgb(100%,34.118652%,34.118652%);fill-opacity:1;" d="M 144.230469 296.226562 C 143.949219 301.371094 136.542969 301.371094 136.261719 296.226562 C 135.988281 291.085938 143.949219 291.109375 144.230469 296.226562 C 144.496094 301.21875 152.277344 301.246094 152.011719 296.226562 C 151.648438 289.585938 146.886719 284.824219 140.246094 284.460938 C 133.617188 284.109375 128.808594 290.113281 128.480469 296.226562 C 128.125 302.859375 134.136719 307.65625 140.246094 307.988281 C 146.875 308.347656 151.675781 302.335938 152.011719 296.226562 C 152.277344 291.210938 144.496094 291.234375 144.230469 296.226562 "/>
<path style=" stroke:none;fill-rule:nonzero;fill:rgb(100%,34.118652%,34.118652%);fill-opacity:1;" d="M 241.433594 296.226562 C 241.152344 301.371094 233.746094 301.371094 233.472656 296.226562 C 233.191406 291.085938 241.160156 291.109375 241.433594 296.226562 C 241.703125 301.21875 249.484375 301.246094 249.214844 296.226562 C 248.855469 289.585938 244.097656 284.824219 237.449219 284.460938 C 230.820312 284.109375 226.019531 290.113281 225.691406 296.226562 C 225.328125 302.859375 231.34375 307.65625 237.449219 307.988281 C 244.085938 308.347656 248.886719 302.335938 249.214844 296.226562 C 249.484375 291.210938 241.703125 291.234375 241.433594 296.226562 "/>
<path style=" stroke:none;fill-rule:nonzero;fill:rgb(100%,34.118652%,34.118652%);fill-opacity:1;" d="M 144.230469 66.144531 C 143.949219 71.285156 136.542969 71.285156 136.261719 66.144531 C 135.988281 61.003906 143.949219 61.03125 144.230469 66.144531 C 144.496094 71.136719 152.277344 71.164062 152.011719 66.144531 C 151.648438 59.503906 146.886719 54.742188 140.246094 54.382812 C 133.617188 54.027344 128.808594 60.039062 128.480469 66.144531 C 128.125 72.777344 134.136719 77.578125 140.246094 77.910156 C 146.875 78.269531 151.675781 72.253906 152.011719 66.144531 C 152.277344 61.128906 144.496094 61.15625 144.230469 66.144531 "/>
<path style=" stroke:none;fill-rule:nonzero;fill:rgb(100%,34.118652%,34.118652%);fill-opacity:1;" d="M 241.433594 66.144531 C 241.152344 71.285156 233.746094 71.285156 233.472656 66.144531 C 233.191406 61.003906 241.160156 61.03125 241.433594 66.144531 C 241.703125 71.136719 249.484375 71.164062 249.214844 66.144531 C 248.855469 59.503906 244.097656 54.742188 237.449219 54.382812 C 230.820312 54.027344 226.019531 60.039062 225.691406 66.144531 C 225.328125 72.777344 231.34375 77.578125 237.449219 77.910156 C 244.085938 78.269531 248.886719 72.253906 249.214844 66.144531 C 249.484375 61.128906 241.703125 61.15625 241.433594 66.144531 "/>
<path style=" stroke:none;fill-rule:nonzero;fill:rgb(100%,34.118652%,34.118652%);fill-opacity:1;" d="M 305.441406 233.511719 C 305.160156 238.652344 297.753906 238.652344 297.476562 233.511719 C 297.199219 228.367188 305.167969 228.394531 305.441406 233.511719 C 305.707031 238.496094 313.488281 238.527344 313.222656 233.511719 C 312.859375 226.867188 308.105469 222.105469 301.457031 221.746094 C 294.828125 221.390625 290.027344 227.402344 289.695312 233.511719 C 289.335938 240.140625 295.347656 244.9375 301.457031 245.269531 C 308.085938 245.628906 312.890625 239.617188 313.222656 233.511719 C 313.488281 228.492188 305.707031 228.515625 305.441406 233.511719 "/>
</g>
</svg>
